<svg id="SvgjsSvg1001" width="288" height="288" xmlns="http://www.w3.org/2000/svg" version="1.1" xmlns:xlink="http://www.w3.org/1999/xlink" xmlns:svgjs="http://svgjs.com/svgjs"><defs id="SvgjsDefs1002"></defs><g id="SvgjsG1008" transform="matrix(0.9167,0,0,0.9167,11.97682839844228,11.985829131317132)"><svg xmlns="http://www.w3.org/2000/svg" enable-background="new 0 0 128 128" viewBox="0 0 128 128" width="288" height="288"><path fill="#ffffff" d="M81.9,68.2c-9.9,0-17.9-8-17.9-17.9c0-1.9,0.3-3.7,0.8-5.4c-0.3,0-0.5,0-0.8,0c-14,0-25.4,11.4-25.4,25.4
				c0,14,11.4,25.4,25.4,25.4s25.4-11.4,25.4-25.4c0-1.2-0.1-2.4-0.2-3.5C86.9,67.7,84.5,68.2,81.9,68.2z" class="color373737 svgShape"></path><path fill="#ffffff" d="M109.8,28H99.2l-2.3-6c-1.5-3.9-5.3-6.5-9.5-6.5H40.6c-4.2,0-8,2.6-9.5,6.5l-2.3,6H18.2
					C9.1,28,1.7,35.4,1.7,44.5V96c0,9.1,7.4,16.4,16.4,16.4h91.6c9.1,0,16.4-7.4,16.4-16.4V44.5C126.3,35.4,118.9,28,109.8,28z
					 M118.4,96c0,4.7-3.8,8.5-8.5,8.5H18.2c-4.7,0-8.5-3.8-8.5-8.5V44.5c0-4.7,3.8-8.5,8.5-8.5h16.1l4.2-11c0.3-0.9,1.2-1.5,2.1-1.5
					h46.7c0.9,0,1.8,0.6,2.1,1.5l4.2,11h16.1c4.7,0,8.5,3.8,8.5,8.5V96z" class="color373737 svgShape"></path></svg></g></svg>